<svg xmlns="http://www.w3.org/2000/svg" version="1.1" width="50" height="25" viewBox="-10 0 60 10">
<polygon points="25506.278725351345,-500.0000000000002 26348.85146769344,-500.0000000000002 26348.85146769344,500.0000000000002 25506.278725351345,500.0000000000002" style="fill:none;stroke:black;stroke-width:0.1" />
<polygon points="23506.27872535135,-500.0000000000002 25506.278725351345,-500.0000000000002 25506.278725351345,500.0000000000002 23506.27872535135,500.0000000000002" style="fill:none;stroke:black;stroke-width:0.1" />
<polygon points="26348.85146769344,-500.0000000000002 28348.85146769344,-500.0000000000002 28348.85146769344,500.0000000000002 26348.85146769344,500.0000000000002" style="fill:none;stroke:black;stroke-width:0.1" />
<polygon points="22356.27872535135,-250.0000000000001 23356.27872535135,-250.0000000000001 23356.27872535135,250.0000000000001 22356.27872535135,250.0000000000001" style="fill:none;stroke:black;stroke-width:0.1" />
<polygon points="28348.85146769344,500.0000000000002 28498.85146769344,500.0000000000002 28498.85146769344,7100.000000000002 28348.85146769344,7100.000000000002" style="fill:none;stroke:black;stroke-width:0.1" />
<polygon points="22356.27872535135,7100.000000000002 28348.85146769344,7100.000000000002 28348.85146769344,8100.000000000002 22356.27872535135,8100.000000000002" style="fill:none;stroke:black;stroke-width:0.1" />
<polygon points="23356.27872535135,-1375.0000000000002 23506.27872535135,-1375.0000000000002 23506.27872535135,-500.0000000000002 23356.27872535135,-250.0000000000001" style="fill:none;stroke:black;stroke-width:0.1" />
<polygon points="22368.66651159015,-1650.0000000000002 23231.27872535135,-1650.0000000000002 23231.27872535135,-1500.0000000000002 22368.66651159015,-1500.0000000000002" style="fill:none;stroke:black;stroke-width:0.1" />
<polygon points="22093.66651159015,-2525.0 22243.66651159015,-2525.0 22243.66651159015,-1775.0000000000005 22093.66651159015,-1775.0000000000005" style="fill:none;stroke:black;stroke-width:0.1" />
<polygon points="22368.66651159015,-2800.0 23231.27872535135,-2800.0 23231.27872535135,-2650.0 22368.66651159015,-2650.0" style="fill:none;stroke:black;stroke-width:0.1" />
<polygon points="23356.27872535135,-4800.000000000001 23506.27872535135,-4800.000000000001 23506.27872535135,-2925.0000000000005 23356.27872535135,-2925.0000000000005" style="fill:none;stroke:black;stroke-width:0.1" />
<polygon points="13120.750387643735,-5800.000000000001 23356.27872535135,-5800.000000000001 23356.27872535135,-4800.000000000001 13120.750387643735,-4800.000000000001" style="fill:none;stroke:black;stroke-width:0.1" />
<polygon points="15120.750387643733,-500.0000000000002 20206.278725351345,-500.0000000000002 20206.278725351345,500.0000000000002 15120.750387643733,500.0000000000002" style="fill:none;stroke:black;stroke-width:0.1" />
<polygon points="13120.750387643733,-500.0000000000002 15120.750387643733,-500.0000000000002 15120.750387643733,500.0000000000002 13120.750387643733,500.0000000000002" style="fill:none;stroke:black;stroke-width:0.1" />
<polygon points="20206.278725351345,-500.0000000000002 22206.27872535135,-500.0000000000002 22206.27872535135,500.0000000000002 20206.278725351345,500.0000000000002" style="fill:none;stroke:black;stroke-width:0.1" />
<polygon points="11970.750387643733,-250.0000000000001 12970.750387643733,-250.0000000000001 12970.750387643733,250.0000000000001 11970.750387643733,250.0000000000001" style="fill:none;stroke:black;stroke-width:0.1" />
<polygon points="22206.27872535135,500.0000000000002 22356.27872535135,250.0000000000001 22356.278725351345,1375.0000000000002 22206.278725351345,1375.0000000000002" style="fill:none;stroke:black;stroke-width:0.1" />
<polygon points="20481.890442924454,1500.0000000000002 22081.278725351345,1500.0000000000002 22081.278725351345,1650.0000000000002 20481.890442924454,1650.0000000000002" style="fill:none;stroke:black;stroke-width:0.1" />
<polygon points="20206.890442924454,1775.0000000000005 20356.890442924454,1775.0000000000005 20356.890442924454,2525.0 20206.890442924454,2525.0" style="fill:none;stroke:black;stroke-width:0.1" />
<polygon points="20481.890442924454,2650.0 22081.278725351345,2650.0 22081.278725351345,2800.0 20481.890442924454,2800.0" style="fill:none;stroke:black;stroke-width:0.1" />
<polygon points="22206.278725351345,2925.0000000000005 22356.278725351345,2925.0000000000005 22356.278725351345,4175.000000000001 22206.278725351345,4175.000000000001" style="fill:none;stroke:black;stroke-width:0.1" />
<polygon points="20481.890442924454,4300.0 22081.278725351345,4300.0 22081.278725351345,4450.0 20481.890442924454,4450.0" style="fill:none;stroke:black;stroke-width:0.1" />
<polygon points="20206.890442924454,4575.0 20356.890442924454,4575.0 20356.890442924454,5325.000000000001 20206.890442924454,5325.000000000001" style="fill:none;stroke:black;stroke-width:0.1" />
<polygon points="20481.890442924454,5450.0 22081.278725351345,5450.0 22081.278725351345,5600.0 20481.890442924454,5600.0" style="fill:none;stroke:black;stroke-width:0.1" />
<polygon points="22206.278725351345,5725.0 22356.278725351345,5725.0 22356.27872535135,7100.000000000002 22206.27872535135,7100.000000000002" style="fill:none;stroke:black;stroke-width:0.1" />
<polygon points="11970.750387643735,7100.000000000002 22206.27872535135,7100.000000000002 22206.27872535135,8100.000000000002 11970.750387643735,8100.000000000002" style="fill:none;stroke:black;stroke-width:0.1" />
<polygon points="12970.750387643733,-1375.0000000000002 13120.750387643733,-1375.0000000000002 13120.750387643733,-500.0000000000002 12970.750387643733,-250.0000000000001" style="fill:none;stroke:black;stroke-width:0.1" />
<polygon points="11766.711215874928,-1650.0000000000002 12845.750387643733,-1650.0000000000002 12845.750387643733,-1500.0000000000002 11766.711215874928,-1500.0000000000002" style="fill:none;stroke:black;stroke-width:0.1" />
<polygon points="11491.71121587493,-2525.0 11641.71121587493,-2525.0 11641.71121587493,-1775.0000000000005 11491.71121587493,-1775.0000000000005" style="fill:none;stroke:black;stroke-width:0.1" />
<polygon points="11766.711215874928,-2800.0 12845.750387643733,-2800.0 12845.750387643733,-2650.0 11766.711215874928,-2650.0" style="fill:none;stroke:black;stroke-width:0.1" />
<polygon points="12970.750387643735,-4800.000000000001 13120.750387643735,-4800.000000000001 13120.750387643733,-2925.0000000000005 12970.750387643733,-2925.0000000000005" style="fill:none;stroke:black;stroke-width:0.1" />
<polygon points="6820.750387643733,-5800.000000000001 12970.750387643735,-5800.000000000001 12970.750387643735,-4800.000000000001 6820.750387643733,-4800.000000000001" style="fill:none;stroke:black;stroke-width:0.1" />
<polygon points="8820.750387643733,-500.0000000000002 9820.750387643733,-500.0000000000002 9820.750387643733,500.0000000000002 8820.750387643733,500.0000000000002" style="fill:none;stroke:black;stroke-width:0.1" />
<polygon points="6820.750387643731,-500.0000000000002 8820.750387643733,-500.0000000000002 8820.750387643733,500.0000000000002 6820.750387643731,500.0000000000002" style="fill:none;stroke:black;stroke-width:0.1" />
<polygon points="9820.750387643733,-500.0000000000002 11820.750387643733,-500.0000000000002 11820.750387643733,500.0000000000002 9820.750387643733,500.0000000000002" style="fill:none;stroke:black;stroke-width:0.1" />
<polygon points="5670.750387643731,-250.0000000000001 6670.750387643731,-250.0000000000001 6670.750387643731,250.0000000000001 5670.750387643731,250.0000000000001" style="fill:none;stroke:black;stroke-width:0.1" />
<polygon points="11820.750387643733,500.0000000000002 11970.750387643733,250.0000000000001 11970.750387643733,1375.0000000000002 11820.750387643733,1375.0000000000002" style="fill:none;stroke:black;stroke-width:0.1" />
<polygon points="8154.348714871663,1500.0000000000002 11695.750387643733,1500.0000000000002 11695.750387643733,1650.0000000000002 8154.348714871663,1650.0000000000002" style="fill:none;stroke:black;stroke-width:0.1" />
<polygon points="7879.348714871662,1775.0000000000005 8029.348714871662,1775.0000000000005 8029.348714871662,2525.0 7879.348714871662,2525.0" style="fill:none;stroke:black;stroke-width:0.1" />
<polygon points="8154.348714871663,2650.0 11695.750387643733,2650.0 11695.750387643733,2800.0 8154.348714871663,2800.0" style="fill:none;stroke:black;stroke-width:0.1" />
<polygon points="11820.750387643733,2925.0000000000005 11970.750387643733,2925.0000000000005 11970.750387643733,4175.000000000001 11820.750387643733,4175.000000000001" style="fill:none;stroke:black;stroke-width:0.1" />
<polygon points="8154.348714871663,4300.0 11695.750387643733,4300.0 11695.750387643733,4450.0 8154.348714871663,4450.0" style="fill:none;stroke:black;stroke-width:0.1" />
<polygon points="7879.348714871662,4575.0 8029.348714871662,4575.0 8029.348714871662,5325.000000000001 7879.348714871662,5325.000000000001" style="fill:none;stroke:black;stroke-width:0.1" />
<polygon points="8154.348714871663,5450.0 11695.750387643733,5450.0 11695.750387643733,5600.0 8154.348714871663,5600.0" style="fill:none;stroke:black;stroke-width:0.1" />
<polygon points="11820.750387643733,5725.0 11970.750387643733,5725.0 11970.750387643735,7100.000000000002 11820.750387643735,7100.000000000002" style="fill:none;stroke:black;stroke-width:0.1" />
<polygon points="5670.750387643733,7100.000000000002 11820.750387643735,7100.000000000002 11820.750387643735,8100.000000000002 5670.750387643733,8100.000000000002" style="fill:none;stroke:black;stroke-width:0.1" />
<polygon points="6670.750387643733,-4800.000000000001 6820.750387643733,-4800.000000000001 6820.750387643731,-500.0000000000002 6670.750387643731,-250.0000000000001" style="fill:none;stroke:black;stroke-width:0.1" />
<polygon points="-4000.000000000002,-5800.000000000001 6670.750387643733,-5800.000000000001 6670.750387643733,-4800.000000000001 -4000.000000000002,-4800.000000000001" style="fill:none;stroke:black;stroke-width:0.1" />
<polygon points="0.0,-500.0000000000002 3520.7503876437318,-500.0000000000002 3520.7503876437318,500.0000000000002 0.0,500.0000000000002" style="fill:none;stroke:black;stroke-width:0.1" />
<polygon points="-4000.0,-500.0000000000002 0.0,-500.0000000000002 0.0,500.0000000000002 -4000.0,500.0000000000002" style="fill:none;stroke:black;stroke-width:0.1" />
<polygon points="3520.7503876437318,-500.0000000000002 5520.750387643731,-500.0000000000002 5520.750387643731,500.0000000000002 3520.7503876437318,500.0000000000002" style="fill:none;stroke:black;stroke-width:0.1" />
<polygon points="-6975.000000000001,-250.0000000000001 -4150.0,-250.0000000000001 -4150.0,250.0000000000001 -6975.000000000001,250.0000000000001" style="fill:none;stroke:black;stroke-width:0.1" />
<polygon points="5520.750387643731,500.0000000000002 5670.750387643731,250.0000000000001 5670.750387643731,1375.0000000000002 5520.750387643731,1375.0000000000002" style="fill:none;stroke:black;stroke-width:0.1" />
<polygon points="3381.0153515581774,1500.0000000000002 5395.750387643732,1500.0000000000002 5395.750387643732,1650.0000000000002 3381.0153515581774,1650.0000000000002" style="fill:none;stroke:black;stroke-width:0.1" />
<polygon points="3106.0153515581774,1775.0000000000005 3256.0153515581774,1775.0000000000005 3256.0153515581774,2525.0 3106.0153515581774,2525.0" style="fill:none;stroke:black;stroke-width:0.1" />
<polygon points="3381.0153515581774,2650.0 5395.750387643732,2650.0 5395.750387643732,2800.0 3381.0153515581774,2800.0" style="fill:none;stroke:black;stroke-width:0.1" />
<polygon points="5520.750387643731,2925.0000000000005 5670.750387643731,2925.0000000000005 5670.750387643731,4175.000000000001 5520.750387643731,4175.000000000001" style="fill:none;stroke:black;stroke-width:0.1" />
<polygon points="3381.0153515581774,4300.0 5395.750387643732,4300.0 5395.750387643732,4450.0 3381.0153515581774,4450.0" style="fill:none;stroke:black;stroke-width:0.1" />
<polygon points="3106.0153515581774,4575.0 3256.0153515581774,4575.0 3256.0153515581774,5325.000000000001 3106.0153515581774,5325.000000000001" style="fill:none;stroke:black;stroke-width:0.1" />
<polygon points="3381.0153515581774,5450.0 5395.750387643732,5450.0 5395.750387643732,5600.0 3381.0153515581774,5600.0" style="fill:none;stroke:black;stroke-width:0.1" />
<polygon points="5520.750387643731,5725.0 5670.750387643731,5725.0 5670.750387643733,7100.000000000002 5520.750387643733,7100.000000000002" style="fill:none;stroke:black;stroke-width:0.1" />
<polygon points="-6975.000000000001,7100.000000000002 5520.750387643733,7100.000000000002 5520.750387643733,8100.000000000002 -6975.000000000001,8100.000000000002" style="fill:none;stroke:black;stroke-width:0.1" />
<polygon points="-4150.0,-1375.0000000000002 -4000.0,-1375.0000000000002 -4000.0,-500.0000000000002 -4150.0,-250.0000000000001" style="fill:none;stroke:black;stroke-width:0.1" />
<polygon points="-4989.261150188535,-1650.0000000000002 -4275.0,-1650.0000000000002 -4275.0,-1500.0000000000002 -4989.261150188535,-1500.0000000000002" style="fill:none;stroke:black;stroke-width:0.1" />
<polygon points="-5264.261150188535,-2525.0 -5114.261150188535,-2525.0 -5114.261150188535,-1775.0000000000005 -5264.261150188535,-1775.0000000000005" style="fill:none;stroke:black;stroke-width:0.1" />
<polygon points="-4989.261150188535,-2800.0 -4275.0,-2800.0 -4275.0,-2650.0 -4989.261150188535,-2650.0" style="fill:none;stroke:black;stroke-width:0.1" />
<polygon points="-4150.000000000002,-4800.000000000001 -4000.000000000002,-4800.000000000001 -4000.0,-2925.0000000000005 -4150.0,-2925.0000000000005" style="fill:none;stroke:black;stroke-width:0.1" />
<polygon points="-7225.000000000001,-5800.000000000001 -4150.000000000002,-5800.000000000001 -4150.000000000002,-4800.000000000001 -7225.000000000001,-4800.000000000001" style="fill:none;stroke:black;stroke-width:0.1" />
<polygon points="-9225.000000000002,-5800.000000000001 -7225.000000000001,-5800.000000000001 -7225.000000000001,-4800.000000000001 -9225.000000000002,-4800.000000000001" style="fill:none;stroke:black;stroke-width:0.1" />
<polygon points="-9225.000000000002,7100.000000000002 -7475.000000000001,7100.000000000002 -7475.000000000001,8100.000000000002 -9225.000000000002,8100.000000000002" style="fill:none;stroke:black;stroke-width:0.1" />
<polygon points="-7475.000000000001,250.0000000000001 -6975.000000000001,250.0000000000001 -6975.000000000001,2280.0000000000005 -7475.000000000001,2280.0000000000005" style="fill:none;stroke:black;stroke-width:0.1" />
<polygon points="-7475.000000000001,5320.000000000002 -6975.000000000001,5320.000000000002 -6975.000000000001,7100.000000000002 -7475.000000000001,7100.000000000002" style="fill:none;stroke:black;stroke-width:0.1" />
<polygon points="28348.85146769344,-500.0000000000002 28498.85146769344,-500.0000000000002 28498.85146769344,500.0000000000002 28348.85146769344,500.0000000000002" style="fill:none;stroke:black;stroke-width:0.1" />
<polygon points="28348.85146769344,7100.000000000002 28498.85146769344,7100.000000000002 28498.85146769344,8100.000000000002 28348.85146769344,8100.000000000002" style="fill:none;stroke:black;stroke-width:0.1" />
<polygon points="23356.27872535135,-5800.000000000001 23506.27872535135,-5800.000000000001 23506.27872535135,-4800.000000000001 23356.27872535135,-4800.000000000001" style="fill:none;stroke:black;stroke-width:0.1" />
<polygon points="25506.278725351345,-500.0000000000002 25506.278725351345,-500.0000000000002 25506.278725351345,500.0000000000002 25506.278725351345,500.0000000000002" style="fill:none;stroke:black;stroke-width:0.1" />
<polygon points="26348.85146769344,-500.0000000000002 26348.85146769344,-500.0000000000002 26348.85146769344,500.0000000000002 26348.85146769344,500.0000000000002" style="fill:none;stroke:black;stroke-width:0.1" />
<polygon points="23356.27872535135,-250.0000000000001 23506.27872535135,-500.0000000000002 23506.27872535135,500.0000000000002 23356.27872535135,250.0000000000001" style="fill:none;stroke:black;stroke-width:0.1" />
<polygon points="22206.27872535135,-500.0000000000002 22356.27872535135,-250.0000000000001 22356.27872535135,250.0000000000001 22206.27872535135,500.0000000000002" style="fill:none;stroke:black;stroke-width:0.1" />
<polygon points="22206.27872535135,7100.000000000002 22356.27872535135,7100.000000000002 22356.27872535135,8100.000000000002 22206.27872535135,8100.000000000002" style="fill:none;stroke:black;stroke-width:0.1" />
<polygon points="12970.750387643735,-5800.000000000001 13120.750387643735,-5800.000000000001 13120.750387643735,-4800.000000000001 12970.750387643735,-4800.000000000001" style="fill:none;stroke:black;stroke-width:0.1" />
<polygon points="23356.27872535135,-1375.0000000000002 23506.27872535135,-1375.0000000000002 23506.27872535135,-1375.0000000000002 23356.27872535135,-1375.0000000000002" style="fill:none;stroke:black;stroke-width:0.1" />
<polygon points="23231.27872535135,-1650.0000000000002 23231.27872535135,-1650.0000000000002 23231.27872535135,-1500.0000000000002 23231.27872535135,-1500.0000000000002" style="fill:none;stroke:black;stroke-width:0.1" />
<polygon points="22368.66651159015,-1650.0000000000002 22368.66651159015,-1650.0000000000002 22368.66651159015,-1500.0000000000002 22368.66651159015,-1500.0000000000002" style="fill:none;stroke:black;stroke-width:0.1" />
<polygon points="22093.66651159015,-1775.0000000000005 22243.66651159015,-1775.0000000000005 22243.66651159015,-1775.0000000000005 22093.66651159015,-1775.0000000000005" style="fill:none;stroke:black;stroke-width:0.1" />
<polygon points="22093.66651159015,-2525.0 22243.66651159015,-2525.0 22243.66651159015,-2525.0 22093.66651159015,-2525.0" style="fill:none;stroke:black;stroke-width:0.1" />
<polygon points="22368.66651159015,-2800.0 22368.66651159015,-2800.0 22368.66651159015,-2650.0 22368.66651159015,-2650.0" style="fill:none;stroke:black;stroke-width:0.1" />
<polygon points="23231.27872535135,-2800.0 23231.27872535135,-2800.0 23231.27872535135,-2650.0 23231.27872535135,-2650.0" style="fill:none;stroke:black;stroke-width:0.1" />
<polygon points="23356.27872535135,-2925.0000000000005 23506.27872535135,-2925.0000000000005 23506.27872535135,-2925.0000000000005 23356.27872535135,-2925.0000000000005" style="fill:none;stroke:black;stroke-width:0.1" />
<polygon points="15120.750387643733,-500.0000000000002 15120.750387643733,-500.0000000000002 15120.750387643733,500.0000000000002 15120.750387643733,500.0000000000002" style="fill:none;stroke:black;stroke-width:0.1" />
<polygon points="20206.278725351345,-500.0000000000002 20206.278725351345,-500.0000000000002 20206.278725351345,500.0000000000002 20206.278725351345,500.0000000000002" style="fill:none;stroke:black;stroke-width:0.1" />
<polygon points="12970.750387643733,-250.0000000000001 13120.750387643733,-500.0000000000002 13120.750387643733,500.0000000000002 12970.750387643733,250.0000000000001" style="fill:none;stroke:black;stroke-width:0.1" />
<polygon points="11820.750387643733,-500.0000000000002 11970.750387643733,-250.0000000000001 11970.750387643733,250.0000000000001 11820.750387643733,500.0000000000002" style="fill:none;stroke:black;stroke-width:0.1" />
<polygon points="11820.750387643735,7100.000000000002 11970.750387643735,7100.000000000002 11970.750387643735,8100.000000000002 11820.750387643735,8100.000000000002" style="fill:none;stroke:black;stroke-width:0.1" />
<polygon points="6670.750387643733,-5800.000000000001 6820.750387643733,-5800.000000000001 6820.750387643733,-4800.000000000001 6670.750387643733,-4800.000000000001" style="fill:none;stroke:black;stroke-width:0.1" />
<polygon points="22206.278725351345,1375.0000000000002 22356.278725351345,1375.0000000000002 22356.278725351345,1375.0000000000002 22206.278725351345,1375.0000000000002" style="fill:none;stroke:black;stroke-width:0.1" />
<polygon points="22081.278725351345,1500.0000000000002 22081.278725351345,1500.0000000000002 22081.278725351345,1650.0000000000002 22081.278725351345,1650.0000000000002" style="fill:none;stroke:black;stroke-width:0.1" />
<polygon points="20481.890442924454,1500.0000000000002 20481.890442924454,1500.0000000000002 20481.890442924454,1650.0000000000002 20481.890442924454,1650.0000000000002" style="fill:none;stroke:black;stroke-width:0.1" />
<polygon points="20206.890442924454,1775.0000000000005 20356.890442924454,1775.0000000000005 20356.890442924454,1775.0000000000005 20206.890442924454,1775.0000000000005" style="fill:none;stroke:black;stroke-width:0.1" />
<polygon points="20206.890442924454,2525.0 20356.890442924454,2525.0 20356.890442924454,2525.0 20206.890442924454,2525.0" style="fill:none;stroke:black;stroke-width:0.1" />
<polygon points="20481.890442924454,2650.0 20481.890442924454,2650.0 20481.890442924454,2800.0 20481.890442924454,2800.0" style="fill:none;stroke:black;stroke-width:0.1" />
<polygon points="22081.278725351345,2650.0 22081.278725351345,2650.0 22081.278725351345,2800.0 22081.278725351345,2800.0" style="fill:none;stroke:black;stroke-width:0.1" />
<polygon points="22206.278725351345,2925.0000000000005 22356.278725351345,2925.0000000000005 22356.278725351345,2925.0000000000005 22206.278725351345,2925.0000000000005" style="fill:none;stroke:black;stroke-width:0.1" />
<polygon points="22206.278725351345,4175.000000000001 22356.278725351345,4175.000000000001 22356.278725351345,4175.000000000001 22206.278725351345,4175.000000000001" style="fill:none;stroke:black;stroke-width:0.1" />
<polygon points="22081.278725351345,4300.0 22081.278725351345,4300.0 22081.278725351345,4450.0 22081.278725351345,4450.0" style="fill:none;stroke:black;stroke-width:0.1" />
<polygon points="20481.890442924454,4300.0 20481.890442924454,4300.0 20481.890442924454,4450.0 20481.890442924454,4450.0" style="fill:none;stroke:black;stroke-width:0.1" />
<polygon points="20206.890442924454,4575.0 20356.890442924454,4575.0 20356.890442924454,4575.0 20206.890442924454,4575.0" style="fill:none;stroke:black;stroke-width:0.1" />
<polygon points="20206.890442924454,5325.000000000001 20356.890442924454,5325.000000000001 20356.890442924454,5325.000000000001 20206.890442924454,5325.000000000001" style="fill:none;stroke:black;stroke-width:0.1" />
<polygon points="20481.890442924454,5450.0 20481.890442924454,5450.0 20481.890442924454,5600.0 20481.890442924454,5600.0" style="fill:none;stroke:black;stroke-width:0.1" />
<polygon points="22081.278725351345,5450.0 22081.278725351345,5450.0 22081.278725351345,5600.0 22081.278725351345,5600.0" style="fill:none;stroke:black;stroke-width:0.1" />
<polygon points="22206.278725351345,5725.0 22356.278725351345,5725.0 22356.278725351345,5725.0 22206.278725351345,5725.0" style="fill:none;stroke:black;stroke-width:0.1" />
<polygon points="12970.750387643733,-1375.0000000000002 13120.750387643733,-1375.0000000000002 13120.750387643733,-1375.0000000000002 12970.750387643733,-1375.0000000000002" style="fill:none;stroke:black;stroke-width:0.1" />
<polygon points="12845.750387643733,-1650.0000000000002 12845.750387643733,-1650.0000000000002 12845.750387643733,-1500.0000000000002 12845.750387643733,-1500.0000000000002" style="fill:none;stroke:black;stroke-width:0.1" />
<polygon points="11766.711215874928,-1650.0000000000002 11766.711215874928,-1650.0000000000002 11766.711215874928,-1500.0000000000002 11766.711215874928,-1500.0000000000002" style="fill:none;stroke:black;stroke-width:0.1" />
<polygon points="11491.71121587493,-1775.0000000000005 11641.71121587493,-1775.0000000000005 11641.71121587493,-1775.0000000000005 11491.71121587493,-1775.0000000000005" style="fill:none;stroke:black;stroke-width:0.1" />
<polygon points="11491.71121587493,-2525.0 11641.71121587493,-2525.0 11641.71121587493,-2525.0 11491.71121587493,-2525.0" style="fill:none;stroke:black;stroke-width:0.1" />
<polygon points="11766.711215874928,-2800.0 11766.711215874928,-2800.0 11766.711215874928,-2650.0 11766.711215874928,-2650.0" style="fill:none;stroke:black;stroke-width:0.1" />
<polygon points="12845.750387643733,-2800.0 12845.750387643733,-2800.0 12845.750387643733,-2650.0 12845.750387643733,-2650.0" style="fill:none;stroke:black;stroke-width:0.1" />
<polygon points="12970.750387643733,-2925.0000000000005 13120.750387643733,-2925.0000000000005 13120.750387643733,-2925.0000000000005 12970.750387643733,-2925.0000000000005" style="fill:none;stroke:black;stroke-width:0.1" />
<polygon points="8820.750387643733,-500.0000000000002 8820.750387643733,-500.0000000000002 8820.750387643733,500.0000000000002 8820.750387643733,500.0000000000002" style="fill:none;stroke:black;stroke-width:0.1" />
<polygon points="9820.750387643733,-500.0000000000002 9820.750387643733,-500.0000000000002 9820.750387643733,500.0000000000002 9820.750387643733,500.0000000000002" style="fill:none;stroke:black;stroke-width:0.1" />
<polygon points="6670.750387643731,-250.0000000000001 6820.750387643731,-500.0000000000002 6820.750387643731,500.0000000000002 6670.750387643731,250.0000000000001" style="fill:none;stroke:black;stroke-width:0.1" />
<polygon points="5520.750387643731,-500.0000000000002 5670.750387643731,-250.0000000000001 5670.750387643731,250.0000000000001 5520.750387643731,500.0000000000002" style="fill:none;stroke:black;stroke-width:0.1" />
<polygon points="5520.750387643733,7100.000000000002 5670.750387643733,7100.000000000002 5670.750387643733,8100.000000000002 5520.750387643733,8100.000000000002" style="fill:none;stroke:black;stroke-width:0.1" />
<polygon points="-4150.000000000002,-5800.000000000001 -4000.000000000002,-5800.000000000001 -4000.000000000002,-4800.000000000001 -4150.000000000002,-4800.000000000001" style="fill:none;stroke:black;stroke-width:0.1" />
<polygon points="11820.750387643733,1375.0000000000002 11970.750387643733,1375.0000000000002 11970.750387643733,1375.0000000000002 11820.750387643733,1375.0000000000002" style="fill:none;stroke:black;stroke-width:0.1" />
<polygon points="11695.750387643733,1500.0000000000002 11695.750387643733,1500.0000000000002 11695.750387643733,1650.0000000000002 11695.750387643733,1650.0000000000002" style="fill:none;stroke:black;stroke-width:0.1" />
<polygon points="8154.348714871663,1500.0000000000002 8154.348714871663,1500.0000000000002 8154.348714871663,1650.0000000000002 8154.348714871663,1650.0000000000002" style="fill:none;stroke:black;stroke-width:0.1" />
<polygon points="7879.348714871662,1775.0000000000005 8029.348714871662,1775.0000000000005 8029.348714871662,1775.0000000000005 7879.348714871662,1775.0000000000005" style="fill:none;stroke:black;stroke-width:0.1" />
<polygon points="7879.348714871662,2525.0 8029.348714871662,2525.0 8029.348714871662,2525.0 7879.348714871662,2525.0" style="fill:none;stroke:black;stroke-width:0.1" />
<polygon points="8154.348714871663,2650.0 8154.348714871663,2650.0 8154.348714871663,2800.0 8154.348714871663,2800.0" style="fill:none;stroke:black;stroke-width:0.1" />
<polygon points="11695.750387643733,2650.0 11695.750387643733,2650.0 11695.750387643733,2800.0 11695.750387643733,2800.0" style="fill:none;stroke:black;stroke-width:0.1" />
<polygon points="11820.750387643733,2925.0000000000005 11970.750387643733,2925.0000000000005 11970.750387643733,2925.0000000000005 11820.750387643733,2925.0000000000005" style="fill:none;stroke:black;stroke-width:0.1" />
<polygon points="11820.750387643733,4175.000000000001 11970.750387643733,4175.000000000001 11970.750387643733,4175.000000000001 11820.750387643733,4175.000000000001" style="fill:none;stroke:black;stroke-width:0.1" />
<polygon points="11695.750387643733,4300.0 11695.750387643733,4300.0 11695.750387643733,4450.0 11695.750387643733,4450.0" style="fill:none;stroke:black;stroke-width:0.1" />
<polygon points="8154.348714871663,4300.0 8154.348714871663,4300.0 8154.348714871663,4450.0 8154.348714871663,4450.0" style="fill:none;stroke:black;stroke-width:0.1" />
<polygon points="7879.348714871662,4575.0 8029.348714871662,4575.0 8029.348714871662,4575.0 7879.348714871662,4575.0" style="fill:none;stroke:black;stroke-width:0.1" />
<polygon points="7879.348714871662,5325.000000000001 8029.348714871662,5325.000000000001 8029.348714871662,5325.000000000001 7879.348714871662,5325.000000000001" style="fill:none;stroke:black;stroke-width:0.1" />
<polygon points="8154.348714871663,5450.0 8154.348714871663,5450.0 8154.348714871663,5600.0 8154.348714871663,5600.0" style="fill:none;stroke:black;stroke-width:0.1" />
<polygon points="11695.750387643733,5450.0 11695.750387643733,5450.0 11695.750387643733,5600.0 11695.750387643733,5600.0" style="fill:none;stroke:black;stroke-width:0.1" />
<polygon points="11820.750387643733,5725.0 11970.750387643733,5725.0 11970.750387643733,5725.0 11820.750387643733,5725.0" style="fill:none;stroke:black;stroke-width:0.1" />
<polygon points="0.0,-500.0000000000002 0.0,-500.0000000000002 0.0,500.0000000000002 0.0,500.0000000000002" style="fill:none;stroke:black;stroke-width:0.1" />
<polygon points="3520.7503876437318,-500.0000000000002 3520.7503876437318,-500.0000000000002 3520.7503876437318,500.0000000000002 3520.7503876437318,500.0000000000002" style="fill:none;stroke:black;stroke-width:0.1" />
<polygon points="-4150.0,-250.0000000000001 -4000.0,-500.0000000000002 -4000.0,500.0000000000002 -4150.0,250.0000000000001" style="fill:none;stroke:black;stroke-width:0.1" />
<polygon points="-7475.000000000001,-250.0000000000001 -6975.000000000001,-250.0000000000001 -6975.000000000001,250.0000000000001 -7475.000000000001,250.0000000000001" style="fill:none;stroke:black;stroke-width:0.1" />
<polygon points="-7475.000000000001,7100.000000000002 -6975.000000000001,7100.000000000002 -6975.000000000001,8100.000000000002 -7475.000000000001,8100.000000000002" style="fill:none;stroke:black;stroke-width:0.1" />
<polygon points="-7225.000000000001,-5800.000000000001 -7225.000000000001,-5800.000000000001 -7225.000000000001,-4800.000000000001 -7225.000000000001,-4800.000000000001" style="fill:none;stroke:black;stroke-width:0.1" />
<polygon points="5520.750387643731,1375.0000000000002 5670.750387643731,1375.0000000000002 5670.750387643731,1375.0000000000002 5520.750387643731,1375.0000000000002" style="fill:none;stroke:black;stroke-width:0.1" />
<polygon points="5395.750387643732,1500.0000000000002 5395.750387643732,1500.0000000000002 5395.750387643732,1650.0000000000002 5395.750387643732,1650.0000000000002" style="fill:none;stroke:black;stroke-width:0.1" />
<polygon points="3381.0153515581774,1500.0000000000002 3381.0153515581774,1500.0000000000002 3381.0153515581774,1650.0000000000002 3381.0153515581774,1650.0000000000002" style="fill:none;stroke:black;stroke-width:0.1" />
<polygon points="3106.0153515581774,1775.0000000000005 3256.0153515581774,1775.0000000000005 3256.0153515581774,1775.0000000000005 3106.0153515581774,1775.0000000000005" style="fill:none;stroke:black;stroke-width:0.1" />
<polygon points="3106.0153515581774,2525.0 3256.0153515581774,2525.0 3256.0153515581774,2525.0 3106.0153515581774,2525.0" style="fill:none;stroke:black;stroke-width:0.1" />
<polygon points="3381.0153515581774,2650.0 3381.0153515581774,2650.0 3381.0153515581774,2800.0 3381.0153515581774,2800.0" style="fill:none;stroke:black;stroke-width:0.1" />
<polygon points="5395.750387643732,2650.0 5395.750387643732,2650.0 5395.750387643732,2800.0 5395.750387643732,2800.0" style="fill:none;stroke:black;stroke-width:0.1" />
<polygon points="5520.750387643731,2925.0000000000005 5670.750387643731,2925.0000000000005 5670.750387643731,2925.0000000000005 5520.750387643731,2925.0000000000005" style="fill:none;stroke:black;stroke-width:0.1" />
<polygon points="5520.750387643731,4175.000000000001 5670.750387643731,4175.000000000001 5670.750387643731,4175.000000000001 5520.750387643731,4175.000000000001" style="fill:none;stroke:black;stroke-width:0.1" />
<polygon points="5395.750387643732,4300.0 5395.750387643732,4300.0 5395.750387643732,4450.0 5395.750387643732,4450.0" style="fill:none;stroke:black;stroke-width:0.1" />
<polygon points="3381.0153515581774,4300.0 3381.0153515581774,4300.0 3381.0153515581774,4450.0 3381.0153515581774,4450.0" style="fill:none;stroke:black;stroke-width:0.1" />
<polygon points="3106.0153515581774,4575.0 3256.0153515581774,4575.0 3256.0153515581774,4575.0 3106.0153515581774,4575.0" style="fill:none;stroke:black;stroke-width:0.1" />
<polygon points="3106.0153515581774,5325.000000000001 3256.0153515581774,5325.000000000001 3256.0153515581774,5325.000000000001 3106.0153515581774,5325.000000000001" style="fill:none;stroke:black;stroke-width:0.1" />
<polygon points="3381.0153515581774,5450.0 3381.0153515581774,5450.0 3381.0153515581774,5600.0 3381.0153515581774,5600.0" style="fill:none;stroke:black;stroke-width:0.1" />
<polygon points="5395.750387643732,5450.0 5395.750387643732,5450.0 5395.750387643732,5600.0 5395.750387643732,5600.0" style="fill:none;stroke:black;stroke-width:0.1" />
<polygon points="5520.750387643731,5725.0 5670.750387643731,5725.0 5670.750387643731,5725.0 5520.750387643731,5725.0" style="fill:none;stroke:black;stroke-width:0.1" />
<polygon points="-4150.0,-1375.0000000000002 -4000.0,-1375.0000000000002 -4000.0,-1375.0000000000002 -4150.0,-1375.0000000000002" style="fill:none;stroke:black;stroke-width:0.1" />
<polygon points="-4275.0,-1650.0000000000002 -4275.0,-1650.0000000000002 -4275.0,-1500.0000000000002 -4275.0,-1500.0000000000002" style="fill:none;stroke:black;stroke-width:0.1" />
<polygon points="-4989.261150188535,-1650.0000000000002 -4989.261150188535,-1650.0000000000002 -4989.261150188535,-1500.0000000000002 -4989.261150188535,-1500.0000000000002" style="fill:none;stroke:black;stroke-width:0.1" />
<polygon points="-5264.261150188535,-1775.0000000000005 -5114.261150188535,-1775.0000000000005 -5114.261150188535,-1775.0000000000005 -5264.261150188535,-1775.0000000000005" style="fill:none;stroke:black;stroke-width:0.1" />
<polygon points="-5264.261150188535,-2525.0 -5114.261150188535,-2525.0 -5114.261150188535,-2525.0 -5264.261150188535,-2525.0" style="fill:none;stroke:black;stroke-width:0.1" />
<polygon points="-4989.261150188535,-2800.0 -4989.261150188535,-2800.0 -4989.261150188535,-2650.0 -4989.261150188535,-2650.0" style="fill:none;stroke:black;stroke-width:0.1" />
<polygon points="-4275.0,-2800.0 -4275.0,-2800.0 -4275.0,-2650.0 -4275.0,-2650.0" style="fill:none;stroke:black;stroke-width:0.1" />
<polygon points="-4150.0,-2925.0000000000005 -4000.0,-2925.0000000000005 -4000.0,-2925.0000000000005 -4150.0,-2925.0000000000005" style="fill:none;stroke:black;stroke-width:0.1" />
<polygon points="-9225.000000000002,-5800.000000000001 -9225.000000000002,-5800.000000000001 -9225.000000000002,-4800.000000000001 -9225.000000000002,-4800.000000000001" style="fill:none;stroke:black;stroke-width:0.1" />
<polygon points="-9225.000000000002,7100.000000000002 -9225.000000000002,7100.000000000002 -9225.000000000002,8100.000000000002 -9225.000000000002,8100.000000000002" style="fill:none;stroke:black;stroke-width:0.1" />
<polygon points="-7475.000000000001,2280.0000000000005 -6975.000000000001,2280.0000000000005 -6975.000000000001,2280.0000000000005 -7475.000000000001,2280.0000000000005" style="fill:none;stroke:black;stroke-width:0.1" />
<polygon points="-7475.000000000001,5320.000000000002 -6975.000000000001,5320.000000000002 -6975.000000000001,5320.000000000002 -7475.000000000001,5320.000000000002" style="fill:none;stroke:black;stroke-width:0.1" />
<polygon points="28348.85146769344,-500.0000000000002 28498.85146769344,-500.0000000000002 28498.85146769344,500.0000000000002 28348.85146769344,500.0000000000002" style="fill:none;stroke:black;stroke-width:0.1" />
<polygon points="28348.85146769344,7100.000000000002 28498.85146769344,7100.000000000002 28498.85146769344,8100.000000000002 28348.85146769344,8100.000000000002" style="fill:none;stroke:black;stroke-width:0.1" />
<polygon points="23356.27872535135,-5800.000000000001 23506.27872535135,-5800.000000000001 23506.27872535135,-4800.000000000001 23356.27872535135,-4800.000000000001" style="fill:none;stroke:black;stroke-width:0.1" />
<polygon points="25506.278725351345,-500.0000000000002 25506.278725351345,-500.0000000000002 25506.278725351345,500.0000000000002 25506.278725351345,500.0000000000002" style="fill:none;stroke:black;stroke-width:0.1" />
<polygon points="26348.85146769344,-500.0000000000002 26348.85146769344,-500.0000000000002 26348.85146769344,500.0000000000002 26348.85146769344,500.0000000000002" style="fill:none;stroke:black;stroke-width:0.1" />
<polygon points="23356.27872535135,-250.0000000000001 23506.27872535135,-500.0000000000002 23506.27872535135,500.0000000000002 23356.27872535135,250.0000000000001" style="fill:none;stroke:black;stroke-width:0.1" />
<polygon points="22206.27872535135,-500.0000000000002 22356.27872535135,-250.0000000000001 22356.27872535135,250.0000000000001 22206.27872535135,500.0000000000002" style="fill:none;stroke:black;stroke-width:0.1" />
<polygon points="22206.27872535135,7100.000000000002 22356.27872535135,7100.000000000002 22356.27872535135,8100.000000000002 22206.27872535135,8100.000000000002" style="fill:none;stroke:black;stroke-width:0.1" />
<polygon points="12970.750387643735,-5800.000000000001 13120.750387643735,-5800.000000000001 13120.750387643735,-4800.000000000001 12970.750387643735,-4800.000000000001" style="fill:none;stroke:black;stroke-width:0.1" />
<polygon points="23356.27872535135,-1375.0000000000002 23506.27872535135,-1375.0000000000002 23506.27872535135,-1375.0000000000002 23356.27872535135,-1375.0000000000002" style="fill:none;stroke:black;stroke-width:0.1" />
<polygon points="23231.27872535135,-1650.0000000000002 23231.27872535135,-1650.0000000000002 23231.27872535135,-1500.0000000000002 23231.27872535135,-1500.0000000000002" style="fill:none;stroke:black;stroke-width:0.1" />
<polygon points="22368.66651159015,-1650.0000000000002 22368.66651159015,-1650.0000000000002 22368.66651159015,-1500.0000000000002 22368.66651159015,-1500.0000000000002" style="fill:none;stroke:black;stroke-width:0.1" />
<polygon points="22093.66651159015,-1775.0000000000005 22243.66651159015,-1775.0000000000005 22243.66651159015,-1775.0000000000005 22093.66651159015,-1775.0000000000005" style="fill:none;stroke:black;stroke-width:0.1" />
<polygon points="22093.66651159015,-2525.0 22243.66651159015,-2525.0 22243.66651159015,-2525.0 22093.66651159015,-2525.0" style="fill:none;stroke:black;stroke-width:0.1" />
<polygon points="22368.66651159015,-2800.0 22368.66651159015,-2800.0 22368.66651159015,-2650.0 22368.66651159015,-2650.0" style="fill:none;stroke:black;stroke-width:0.1" />
<polygon points="23231.27872535135,-2800.0 23231.27872535135,-2800.0 23231.27872535135,-2650.0 23231.27872535135,-2650.0" style="fill:none;stroke:black;stroke-width:0.1" />
<polygon points="23356.27872535135,-2925.0000000000005 23506.27872535135,-2925.0000000000005 23506.27872535135,-2925.0000000000005 23356.27872535135,-2925.0000000000005" style="fill:none;stroke:black;stroke-width:0.1" />
<polygon points="15120.750387643733,-500.0000000000002 15120.750387643733,-500.0000000000002 15120.750387643733,500.0000000000002 15120.750387643733,500.0000000000002" style="fill:none;stroke:black;stroke-width:0.1" />
<polygon points="20206.278725351345,-500.0000000000002 20206.278725351345,-500.0000000000002 20206.278725351345,500.0000000000002 20206.278725351345,500.0000000000002" style="fill:none;stroke:black;stroke-width:0.1" />
<polygon points="12970.750387643733,-250.0000000000001 13120.750387643733,-500.0000000000002 13120.750387643733,500.0000000000002 12970.750387643733,250.0000000000001" style="fill:none;stroke:black;stroke-width:0.1" />
<polygon points="11820.750387643733,-500.0000000000002 11970.750387643733,-250.0000000000001 11970.750387643733,250.0000000000001 11820.750387643733,500.0000000000002" style="fill:none;stroke:black;stroke-width:0.1" />
<polygon points="11820.750387643735,7100.000000000002 11970.750387643735,7100.000000000002 11970.750387643735,8100.000000000002 11820.750387643735,8100.000000000002" style="fill:none;stroke:black;stroke-width:0.1" />
<polygon points="6670.750387643733,-5800.000000000001 6820.750387643733,-5800.000000000001 6820.750387643733,-4800.000000000001 6670.750387643733,-4800.000000000001" style="fill:none;stroke:black;stroke-width:0.1" />
<polygon points="22206.278725351345,1375.0000000000002 22356.278725351345,1375.0000000000002 22356.278725351345,1375.0000000000002 22206.278725351345,1375.0000000000002" style="fill:none;stroke:black;stroke-width:0.1" />
<polygon points="22081.278725351345,1500.0000000000002 22081.278725351345,1500.0000000000002 22081.278725351345,1650.0000000000002 22081.278725351345,1650.0000000000002" style="fill:none;stroke:black;stroke-width:0.1" />
<polygon points="20481.890442924454,1500.0000000000002 20481.890442924454,1500.0000000000002 20481.890442924454,1650.0000000000002 20481.890442924454,1650.0000000000002" style="fill:none;stroke:black;stroke-width:0.1" />
<polygon points="20206.890442924454,1775.0000000000005 20356.890442924454,1775.0000000000005 20356.890442924454,1775.0000000000005 20206.890442924454,1775.0000000000005" style="fill:none;stroke:black;stroke-width:0.1" />
<polygon points="20206.890442924454,2525.0 20356.890442924454,2525.0 20356.890442924454,2525.0 20206.890442924454,2525.0" style="fill:none;stroke:black;stroke-width:0.1" />
<polygon points="20481.890442924454,2650.0 20481.890442924454,2650.0 20481.890442924454,2800.0 20481.890442924454,2800.0" style="fill:none;stroke:black;stroke-width:0.1" />
<polygon points="22081.278725351345,2650.0 22081.278725351345,2650.0 22081.278725351345,2800.0 22081.278725351345,2800.0" style="fill:none;stroke:black;stroke-width:0.1" />
<polygon points="22206.278725351345,2925.0000000000005 22356.278725351345,2925.0000000000005 22356.278725351345,2925.0000000000005 22206.278725351345,2925.0000000000005" style="fill:none;stroke:black;stroke-width:0.1" />
<polygon points="22206.278725351345,4175.000000000001 22356.278725351345,4175.000000000001 22356.278725351345,4175.000000000001 22206.278725351345,4175.000000000001" style="fill:none;stroke:black;stroke-width:0.1" />
<polygon points="22081.278725351345,4300.0 22081.278725351345,4300.0 22081.278725351345,4450.0 22081.278725351345,4450.0" style="fill:none;stroke:black;stroke-width:0.1" />
<polygon points="20481.890442924454,4300.0 20481.890442924454,4300.0 20481.890442924454,4450.0 20481.890442924454,4450.0" style="fill:none;stroke:black;stroke-width:0.1" />
<polygon points="20206.890442924454,4575.0 20356.890442924454,4575.0 20356.890442924454,4575.0 20206.890442924454,4575.0" style="fill:none;stroke:black;stroke-width:0.1" />
<polygon points="20206.890442924454,5325.000000000001 20356.890442924454,5325.000000000001 20356.890442924454,5325.000000000001 20206.890442924454,5325.000000000001" style="fill:none;stroke:black;stroke-width:0.1" />
<polygon points="20481.890442924454,5450.0 20481.890442924454,5450.0 20481.890442924454,5600.0 20481.890442924454,5600.0" style="fill:none;stroke:black;stroke-width:0.1" />
<polygon points="22081.278725351345,5450.0 22081.278725351345,5450.0 22081.278725351345,5600.0 22081.278725351345,5600.0" style="fill:none;stroke:black;stroke-width:0.1" />
<polygon points="22206.278725351345,5725.0 22356.278725351345,5725.0 22356.278725351345,5725.0 22206.278725351345,5725.0" style="fill:none;stroke:black;stroke-width:0.1" />
<polygon points="12970.750387643733,-1375.0000000000002 13120.750387643733,-1375.0000000000002 13120.750387643733,-1375.0000000000002 12970.750387643733,-1375.0000000000002" style="fill:none;stroke:black;stroke-width:0.1" />
<polygon points="12845.750387643733,-1650.0000000000002 12845.750387643733,-1650.0000000000002 12845.750387643733,-1500.0000000000002 12845.750387643733,-1500.0000000000002" style="fill:none;stroke:black;stroke-width:0.1" />
<polygon points="11766.711215874928,-1650.0000000000002 11766.711215874928,-1650.0000000000002 11766.711215874928,-1500.0000000000002 11766.711215874928,-1500.0000000000002" style="fill:none;stroke:black;stroke-width:0.1" />
<polygon points="11491.71121587493,-1775.0000000000005 11641.71121587493,-1775.0000000000005 11641.71121587493,-1775.0000000000005 11491.71121587493,-1775.0000000000005" style="fill:none;stroke:black;stroke-width:0.1" />
<polygon points="11491.71121587493,-2525.0 11641.71121587493,-2525.0 11641.71121587493,-2525.0 11491.71121587493,-2525.0" style="fill:none;stroke:black;stroke-width:0.1" />
<polygon points="11766.711215874928,-2800.0 11766.711215874928,-2800.0 11766.711215874928,-2650.0 11766.711215874928,-2650.0" style="fill:none;stroke:black;stroke-width:0.1" />
<polygon points="12845.750387643733,-2800.0 12845.750387643733,-2800.0 12845.750387643733,-2650.0 12845.750387643733,-2650.0" style="fill:none;stroke:black;stroke-width:0.1" />
<polygon points="12970.750387643733,-2925.0000000000005 13120.750387643733,-2925.0000000000005 13120.750387643733,-2925.0000000000005 12970.750387643733,-2925.0000000000005" style="fill:none;stroke:black;stroke-width:0.1" />
<polygon points="8820.750387643733,-500.0000000000002 8820.750387643733,-500.0000000000002 8820.750387643733,500.0000000000002 8820.750387643733,500.0000000000002" style="fill:none;stroke:black;stroke-width:0.1" />
<polygon points="9820.750387643733,-500.0000000000002 9820.750387643733,-500.0000000000002 9820.750387643733,500.0000000000002 9820.750387643733,500.0000000000002" style="fill:none;stroke:black;stroke-width:0.1" />
<polygon points="6670.750387643731,-250.0000000000001 6820.750387643731,-500.0000000000002 6820.750387643731,500.0000000000002 6670.750387643731,250.0000000000001" style="fill:none;stroke:black;stroke-width:0.1" />
<polygon points="5520.750387643731,-500.0000000000002 5670.750387643731,-250.0000000000001 5670.750387643731,250.0000000000001 5520.750387643731,500.0000000000002" style="fill:none;stroke:black;stroke-width:0.1" />
<polygon points="5520.750387643733,7100.000000000002 5670.750387643733,7100.000000000002 5670.750387643733,8100.000000000002 5520.750387643733,8100.000000000002" style="fill:none;stroke:black;stroke-width:0.1" />
<polygon points="-4150.000000000002,-5800.000000000001 -4000.000000000002,-5800.000000000001 -4000.000000000002,-4800.000000000001 -4150.000000000002,-4800.000000000001" style="fill:none;stroke:black;stroke-width:0.1" />
<polygon points="11820.750387643733,1375.0000000000002 11970.750387643733,1375.0000000000002 11970.750387643733,1375.0000000000002 11820.750387643733,1375.0000000000002" style="fill:none;stroke:black;stroke-width:0.1" />
<polygon points="11695.750387643733,1500.0000000000002 11695.750387643733,1500.0000000000002 11695.750387643733,1650.0000000000002 11695.750387643733,1650.0000000000002" style="fill:none;stroke:black;stroke-width:0.1" />
<polygon points="8154.348714871663,1500.0000000000002 8154.348714871663,1500.0000000000002 8154.348714871663,1650.0000000000002 8154.348714871663,1650.0000000000002" style="fill:none;stroke:black;stroke-width:0.1" />
<polygon points="7879.348714871662,1775.0000000000005 8029.348714871662,1775.0000000000005 8029.348714871662,1775.0000000000005 7879.348714871662,1775.0000000000005" style="fill:none;stroke:black;stroke-width:0.1" />
<polygon points="7879.348714871662,2525.0 8029.348714871662,2525.0 8029.348714871662,2525.0 7879.348714871662,2525.0" style="fill:none;stroke:black;stroke-width:0.1" />
<polygon points="8154.348714871663,2650.0 8154.348714871663,2650.0 8154.348714871663,2800.0 8154.348714871663,2800.0" style="fill:none;stroke:black;stroke-width:0.1" />
<polygon points="11695.750387643733,2650.0 11695.750387643733,2650.0 11695.750387643733,2800.0 11695.750387643733,2800.0" style="fill:none;stroke:black;stroke-width:0.1" />
<polygon points="11820.750387643733,2925.0000000000005 11970.750387643733,2925.0000000000005 11970.750387643733,2925.0000000000005 11820.750387643733,2925.0000000000005" style="fill:none;stroke:black;stroke-width:0.1" />
<polygon points="11820.750387643733,4175.000000000001 11970.750387643733,4175.000000000001 11970.750387643733,4175.000000000001 11820.750387643733,4175.000000000001" style="fill:none;stroke:black;stroke-width:0.1" />
<polygon points="11695.750387643733,4300.0 11695.750387643733,4300.0 11695.750387643733,4450.0 11695.750387643733,4450.0" style="fill:none;stroke:black;stroke-width:0.1" />
<polygon points="8154.348714871663,4300.0 8154.348714871663,4300.0 8154.348714871663,4450.0 8154.348714871663,4450.0" style="fill:none;stroke:black;stroke-width:0.1" />
<polygon points="7879.348714871662,4575.0 8029.348714871662,4575.0 8029.348714871662,4575.0 7879.348714871662,4575.0" style="fill:none;stroke:black;stroke-width:0.1" />
<polygon points="7879.348714871662,5325.000000000001 8029.348714871662,5325.000000000001 8029.348714871662,5325.000000000001 7879.348714871662,5325.000000000001" style="fill:none;stroke:black;stroke-width:0.1" />
<polygon points="8154.348714871663,5450.0 8154.348714871663,5450.0 8154.348714871663,5600.0 8154.348714871663,5600.0" style="fill:none;stroke:black;stroke-width:0.1" />
<polygon points="11695.750387643733,5450.0 11695.750387643733,5450.0 11695.750387643733,5600.0 11695.750387643733,5600.0" style="fill:none;stroke:black;stroke-width:0.1" />
<polygon points="11820.750387643733,5725.0 11970.750387643733,5725.0 11970.750387643733,5725.0 11820.750387643733,5725.0" style="fill:none;stroke:black;stroke-width:0.1" />
<polygon points="0.0,-500.0000000000002 0.0,-500.0000000000002 0.0,500.0000000000002 0.0,500.0000000000002" style="fill:none;stroke:black;stroke-width:0.1" />
<polygon points="3520.7503876437318,-500.0000000000002 3520.7503876437318,-500.0000000000002 3520.7503876437318,500.0000000000002 3520.7503876437318,500.0000000000002" style="fill:none;stroke:black;stroke-width:0.1" />
<polygon points="-4150.0,-250.0000000000001 -4000.0,-500.0000000000002 -4000.0,500.0000000000002 -4150.0,250.0000000000001" style="fill:none;stroke:black;stroke-width:0.1" />
<polygon points="-7475.000000000001,-250.0000000000001 -6975.000000000001,-250.0000000000001 -6975.000000000001,250.0000000000001 -7475.000000000001,250.0000000000001" style="fill:none;stroke:black;stroke-width:0.1" />
<polygon points="-7475.000000000001,7100.000000000002 -6975.000000000001,7100.000000000002 -6975.000000000001,8100.000000000002 -7475.000000000001,8100.000000000002" style="fill:none;stroke:black;stroke-width:0.1" />
<polygon points="-7225.000000000001,-5800.000000000001 -7225.000000000001,-5800.000000000001 -7225.000000000001,-4800.000000000001 -7225.000000000001,-4800.000000000001" style="fill:none;stroke:black;stroke-width:0.1" />
<polygon points="5520.750387643731,1375.0000000000002 5670.750387643731,1375.0000000000002 5670.750387643731,1375.0000000000002 5520.750387643731,1375.0000000000002" style="fill:none;stroke:black;stroke-width:0.1" />
<polygon points="5395.750387643732,1500.0000000000002 5395.750387643732,1500.0000000000002 5395.750387643732,1650.0000000000002 5395.750387643732,1650.0000000000002" style="fill:none;stroke:black;stroke-width:0.1" />
<polygon points="3381.0153515581774,1500.0000000000002 3381.0153515581774,1500.0000000000002 3381.0153515581774,1650.0000000000002 3381.0153515581774,1650.0000000000002" style="fill:none;stroke:black;stroke-width:0.1" />
<polygon points="3106.0153515581774,1775.0000000000005 3256.0153515581774,1775.0000000000005 3256.0153515581774,1775.0000000000005 3106.0153515581774,1775.0000000000005" style="fill:none;stroke:black;stroke-width:0.1" />
<polygon points="3106.0153515581774,2525.0 3256.0153515581774,2525.0 3256.0153515581774,2525.0 3106.0153515581774,2525.0" style="fill:none;stroke:black;stroke-width:0.1" />
<polygon points="3381.0153515581774,2650.0 3381.0153515581774,2650.0 3381.0153515581774,2800.0 3381.0153515581774,2800.0" style="fill:none;stroke:black;stroke-width:0.1" />
<polygon points="5395.750387643732,2650.0 5395.750387643732,2650.0 5395.750387643732,2800.0 5395.750387643732,2800.0" style="fill:none;stroke:black;stroke-width:0.1" />
<polygon points="5520.750387643731,2925.0000000000005 5670.750387643731,2925.0000000000005 5670.750387643731,2925.0000000000005 5520.750387643731,2925.0000000000005" style="fill:none;stroke:black;stroke-width:0.1" />
<polygon points="5520.750387643731,4175.000000000001 5670.750387643731,4175.000000000001 5670.750387643731,4175.000000000001 5520.750387643731,4175.000000000001" style="fill:none;stroke:black;stroke-width:0.1" />
<polygon points="5395.750387643732,4300.0 5395.750387643732,4300.0 5395.750387643732,4450.0 5395.750387643732,4450.0" style="fill:none;stroke:black;stroke-width:0.1" />
<polygon points="3381.0153515581774,4300.0 3381.0153515581774,4300.0 3381.0153515581774,4450.0 3381.0153515581774,4450.0" style="fill:none;stroke:black;stroke-width:0.1" />
<polygon points="3106.0153515581774,4575.0 3256.0153515581774,4575.0 3256.0153515581774,4575.0 3106.0153515581774,4575.0" style="fill:none;stroke:black;stroke-width:0.1" />
<polygon points="3106.0153515581774,5325.000000000001 3256.0153515581774,5325.000000000001 3256.0153515581774,5325.000000000001 3106.0153515581774,5325.000000000001" style="fill:none;stroke:black;stroke-width:0.1" />
<polygon points="3381.0153515581774,5450.0 3381.0153515581774,5450.0 3381.0153515581774,5600.0 3381.0153515581774,5600.0" style="fill:none;stroke:black;stroke-width:0.1" />
<polygon points="5395.750387643732,5450.0 5395.750387643732,5450.0 5395.750387643732,5600.0 5395.750387643732,5600.0" style="fill:none;stroke:black;stroke-width:0.1" />
<polygon points="5520.750387643731,5725.0 5670.750387643731,5725.0 5670.750387643731,5725.0 5520.750387643731,5725.0" style="fill:none;stroke:black;stroke-width:0.1" />
<polygon points="-4150.0,-1375.0000000000002 -4000.0,-1375.0000000000002 -4000.0,-1375.0000000000002 -4150.0,-1375.0000000000002" style="fill:none;stroke:black;stroke-width:0.1" />
<polygon points="-4275.0,-1650.0000000000002 -4275.0,-1650.0000000000002 -4275.0,-1500.0000000000002 -4275.0,-1500.0000000000002" style="fill:none;stroke:black;stroke-width:0.1" />
<polygon points="-4989.261150188535,-1650.0000000000002 -4989.261150188535,-1650.0000000000002 -4989.261150188535,-1500.0000000000002 -4989.261150188535,-1500.0000000000002" style="fill:none;stroke:black;stroke-width:0.1" />
<polygon points="-5264.261150188535,-1775.0000000000005 -5114.261150188535,-1775.0000000000005 -5114.261150188535,-1775.0000000000005 -5264.261150188535,-1775.0000000000005" style="fill:none;stroke:black;stroke-width:0.1" />
<polygon points="-5264.261150188535,-2525.0 -5114.261150188535,-2525.0 -5114.261150188535,-2525.0 -5264.261150188535,-2525.0" style="fill:none;stroke:black;stroke-width:0.1" />
<polygon points="-4989.261150188535,-2800.0 -4989.261150188535,-2800.0 -4989.261150188535,-2650.0 -4989.261150188535,-2650.0" style="fill:none;stroke:black;stroke-width:0.1" />
<polygon points="-4275.0,-2800.0 -4275.0,-2800.0 -4275.0,-2650.0 -4275.0,-2650.0" style="fill:none;stroke:black;stroke-width:0.1" />
<polygon points="-4150.0,-2925.0000000000005 -4000.0,-2925.0000000000005 -4000.0,-2925.0000000000005 -4150.0,-2925.0000000000005" style="fill:none;stroke:black;stroke-width:0.1" />
<polygon points="-9225.000000000002,-5800.000000000001 -9225.000000000002,-5800.000000000001 -9225.000000000002,-4800.000000000001 -9225.000000000002,-4800.000000000001" style="fill:none;stroke:black;stroke-width:0.1" />
<polygon points="-9225.000000000002,7100.000000000002 -9225.000000000002,7100.000000000002 -9225.000000000002,8100.000000000002 -9225.000000000002,8100.000000000002" style="fill:none;stroke:black;stroke-width:0.1" />
<polygon points="-7475.000000000001,2280.0000000000005 -6975.000000000001,2280.0000000000005 -6975.000000000001,2280.0000000000005 -7475.000000000001,2280.0000000000005" style="fill:none;stroke:black;stroke-width:0.1" />
<polygon points="-7475.000000000001,5320.000000000002 -6975.000000000001,5320.000000000002 -6975.000000000001,5320.000000000002 -7475.000000000001,5320.000000000002" style="fill:none;stroke:black;stroke-width:0.1" />
<path d="M23506.27872535135,-1375.0000000000002 A275.0,275.0 0 0,0 23231.27872535135,-1650.0000000000002" fill="none" stroke="blue" stroke-width="0.1" />
<path d="M23356.27872535135,-1375.0000000000002 A125.0,125.0 0 0,0 23231.27872535135,-1500.0000000000002" fill="none" stroke="blue" stroke-width="0.1" />
<path d="M22368.66651159015,-1500.0000000000002 A275.0,275.0 0 0,1 22093.66651159015,-1775.0000000000005" fill="none" stroke="blue" stroke-width="0.1" />
<path d="M22368.66651159015,-1650.0000000000002 A125.0,125.0 0 0,1 22243.66651159015,-1775.0000000000005" fill="none" stroke="blue" stroke-width="0.1" />
<path d="M22093.66651159015,-2525.0 A-275.0,-275.0 0 0,1 22368.66651159015,-2800.0" fill="none" stroke="blue" stroke-width="0.1" />
<path d="M22243.66651159015,-2525.0 A-125.0,-125.0 0 0,1 22368.66651159015,-2650.0" fill="none" stroke="blue" stroke-width="0.1" />
<path d="M23231.27872535135,-2650.0 A-275.0,-275.0 0 0,0 23506.27872535135,-2925.0000000000005" fill="none" stroke="blue" stroke-width="0.1" />
<path d="M23231.27872535135,-2800.0 A-125.0,-125.0 0 0,0 23356.27872535135,-2925.0000000000005" fill="none" stroke="blue" stroke-width="0.1" />
<path d="M22206.278725351345,1375.0000000000002 A125.0,125.0 0 0,1 22081.278725351345,1500.0000000000002" fill="none" stroke="blue" stroke-width="0.1" />
<path d="M22356.278725351345,1375.0000000000002 A275.0,275.0 0 0,1 22081.278725351345,1650.0000000000002" fill="none" stroke="blue" stroke-width="0.1" />
<path d="M20481.890442924454,1500.0000000000002 A275.0,275.0 0 0,0 20206.890442924454,1775.0000000000005" fill="none" stroke="blue" stroke-width="0.1" />
<path d="M20481.890442924454,1650.0000000000002 A125.0,125.0 0 0,0 20356.890442924454,1775.0000000000005" fill="none" stroke="blue" stroke-width="0.1" />
<path d="M20206.890442924454,2525.0 A-275.0,-275.0 0 0,0 20481.890442924454,2800.0" fill="none" stroke="blue" stroke-width="0.1" />
<path d="M20356.890442924454,2525.0 A-125.0,-125.0 0 0,0 20481.890442924454,2650.0" fill="none" stroke="blue" stroke-width="0.1" />
<path d="M22081.278725351345,2650.0 A-275.0,-275.0 0 0,1 22356.278725351345,2925.0000000000005" fill="none" stroke="blue" stroke-width="0.1" />
<path d="M22081.278725351345,2800.0 A-125.0,-125.0 0 0,1 22206.278725351345,2925.0000000000005" fill="none" stroke="blue" stroke-width="0.1" />
<path d="M22206.278725351345,4175.000000000001 A125.0,125.0 0 0,1 22081.278725351345,4300.0" fill="none" stroke="blue" stroke-width="0.1" />
<path d="M22356.278725351345,4175.000000000001 A275.0,275.0 0 0,1 22081.278725351345,4450.0" fill="none" stroke="blue" stroke-width="0.1" />
<path d="M20481.890442924454,4300.0 A275.0,275.0 0 0,0 20206.890442924454,4575.0" fill="none" stroke="blue" stroke-width="0.1" />
<path d="M20481.890442924454,4450.0 A125.0,125.0 0 0,0 20356.890442924454,4575.0" fill="none" stroke="blue" stroke-width="0.1" />
<path d="M20206.890442924454,5325.000000000001 A-275.0,-275.0 0 0,0 20481.890442924454,5600.0" fill="none" stroke="blue" stroke-width="0.1" />
<path d="M20356.890442924454,5325.000000000001 A-125.0,-125.0 0 0,0 20481.890442924454,5450.0" fill="none" stroke="blue" stroke-width="0.1" />
<path d="M22081.278725351345,5450.0 A-275.0,-275.0 0 0,1 22356.278725351345,5725.0" fill="none" stroke="blue" stroke-width="0.1" />
<path d="M22081.278725351345,5600.0 A-125.0,-125.0 0 0,1 22206.278725351345,5725.0" fill="none" stroke="blue" stroke-width="0.1" />
<path d="M13120.750387643733,-1375.0000000000002 A275.0,275.0 0 0,0 12845.750387643733,-1650.0000000000002" fill="none" stroke="blue" stroke-width="0.1" />
<path d="M12970.750387643733,-1375.0000000000002 A125.0,125.0 0 0,0 12845.750387643733,-1500.0000000000002" fill="none" stroke="blue" stroke-width="0.1" />
<path d="M11766.711215874928,-1500.0000000000002 A274.9999999999982,274.9999999999982 0 0,1 11491.71121587493,-1775.0000000000005" fill="none" stroke="blue" stroke-width="0.1" />
<path d="M11766.711215874928,-1650.0000000000002 A124.99999999999818,124.99999999999818 0 0,1 11641.71121587493,-1775.0000000000005" fill="none" stroke="blue" stroke-width="0.1" />
<path d="M11491.71121587493,-2525.0 A-274.9999999999982,-274.9999999999982 0 0,1 11766.711215874928,-2800.0" fill="none" stroke="blue" stroke-width="0.1" />
<path d="M11641.71121587493,-2525.0 A-124.99999999999818,-124.99999999999818 0 0,1 11766.711215874928,-2650.0" fill="none" stroke="blue" stroke-width="0.1" />
<path d="M12845.750387643733,-2650.0 A-275.0,-275.0 0 0,0 13120.750387643733,-2925.0000000000005" fill="none" stroke="blue" stroke-width="0.1" />
<path d="M12845.750387643733,-2800.0 A-125.0,-125.0 0 0,0 12970.750387643733,-2925.0000000000005" fill="none" stroke="blue" stroke-width="0.1" />
<path d="M11820.750387643733,1375.0000000000002 A125.0,125.0 0 0,1 11695.750387643733,1500.0000000000002" fill="none" stroke="blue" stroke-width="0.1" />
<path d="M11970.750387643733,1375.0000000000002 A275.0,275.0 0 0,1 11695.750387643733,1650.0000000000002" fill="none" stroke="blue" stroke-width="0.1" />
<path d="M8154.348714871663,1500.0000000000002 A275.0000000000009,275.0000000000009 0 0,0 7879.348714871662,1775.0000000000005" fill="none" stroke="blue" stroke-width="0.1" />
<path d="M8154.348714871663,1650.0000000000002 A125.00000000000091,125.00000000000091 0 0,0 8029.348714871662,1775.0000000000005" fill="none" stroke="blue" stroke-width="0.1" />
<path d="M7879.348714871662,2525.0 A-275.0000000000009,-275.0000000000009 0 0,0 8154.348714871663,2800.0" fill="none" stroke="blue" stroke-width="0.1" />
<path d="M8029.348714871662,2525.0 A-125.00000000000091,-125.00000000000091 0 0,0 8154.348714871663,2650.0" fill="none" stroke="blue" stroke-width="0.1" />
<path d="M11695.750387643733,2650.0 A-275.0,-275.0 0 0,1 11970.750387643733,2925.0000000000005" fill="none" stroke="blue" stroke-width="0.1" />
<path d="M11695.750387643733,2800.0 A-125.0,-125.0 0 0,1 11820.750387643733,2925.0000000000005" fill="none" stroke="blue" stroke-width="0.1" />
<path d="M11820.750387643733,4175.000000000001 A125.0,125.0 0 0,1 11695.750387643733,4300.0" fill="none" stroke="blue" stroke-width="0.1" />
<path d="M11970.750387643733,4175.000000000001 A275.0,275.0 0 0,1 11695.750387643733,4450.0" fill="none" stroke="blue" stroke-width="0.1" />
<path d="M8154.348714871663,4300.0 A275.0000000000009,275.0000000000009 0 0,0 7879.348714871662,4575.0" fill="none" stroke="blue" stroke-width="0.1" />
<path d="M8154.348714871663,4450.0 A125.00000000000091,125.00000000000091 0 0,0 8029.348714871662,4575.0" fill="none" stroke="blue" stroke-width="0.1" />
<path d="M7879.348714871662,5325.000000000001 A-275.0000000000009,-275.0000000000009 0 0,0 8154.348714871663,5600.0" fill="none" stroke="blue" stroke-width="0.1" />
<path d="M8029.348714871662,5325.000000000001 A-125.00000000000091,-125.00000000000091 0 0,0 8154.348714871663,5450.0" fill="none" stroke="blue" stroke-width="0.1" />
<path d="M11695.750387643733,5450.0 A-275.0,-275.0 0 0,1 11970.750387643733,5725.0" fill="none" stroke="blue" stroke-width="0.1" />
<path d="M11695.750387643733,5600.0 A-125.0,-125.0 0 0,1 11820.750387643733,5725.0" fill="none" stroke="blue" stroke-width="0.1" />
<path d="M5520.750387643731,1375.0000000000002 A124.99999999999909,124.99999999999909 0 0,1 5395.750387643732,1500.0000000000002" fill="none" stroke="blue" stroke-width="0.1" />
<path d="M5670.750387643731,1375.0000000000002 A274.9999999999991,274.9999999999991 0 0,1 5395.750387643732,1650.0000000000002" fill="none" stroke="blue" stroke-width="0.1" />
<path d="M3381.0153515581774,1500.0000000000002 A275.0,275.0 0 0,0 3106.0153515581774,1775.0000000000005" fill="none" stroke="blue" stroke-width="0.1" />
<path d="M3381.0153515581774,1650.0000000000002 A125.0,125.0 0 0,0 3256.0153515581774,1775.0000000000005" fill="none" stroke="blue" stroke-width="0.1" />
<path d="M3106.0153515581774,2525.0 A-275.0,-275.0 0 0,0 3381.0153515581774,2800.0" fill="none" stroke="blue" stroke-width="0.1" />
<path d="M3256.0153515581774,2525.0 A-125.0,-125.0 0 0,0 3381.0153515581774,2650.0" fill="none" stroke="blue" stroke-width="0.1" />
<path d="M5395.750387643732,2650.0 A-274.9999999999991,-274.9999999999991 0 0,1 5670.750387643731,2925.0000000000005" fill="none" stroke="blue" stroke-width="0.1" />
<path d="M5395.750387643732,2800.0 A-124.99999999999909,-124.99999999999909 0 0,1 5520.750387643731,2925.0000000000005" fill="none" stroke="blue" stroke-width="0.1" />
<path d="M5520.750387643731,4175.000000000001 A124.99999999999909,124.99999999999909 0 0,1 5395.750387643732,4300.0" fill="none" stroke="blue" stroke-width="0.1" />
<path d="M5670.750387643731,4175.000000000001 A274.9999999999991,274.9999999999991 0 0,1 5395.750387643732,4450.0" fill="none" stroke="blue" stroke-width="0.1" />
<path d="M3381.0153515581774,4300.0 A275.0,275.0 0 0,0 3106.0153515581774,4575.0" fill="none" stroke="blue" stroke-width="0.1" />
<path d="M3381.0153515581774,4450.0 A125.0,125.0 0 0,0 3256.0153515581774,4575.0" fill="none" stroke="blue" stroke-width="0.1" />
<path d="M3106.0153515581774,5325.000000000001 A-275.0,-275.0 0 0,0 3381.0153515581774,5600.0" fill="none" stroke="blue" stroke-width="0.1" />
<path d="M3256.0153515581774,5325.000000000001 A-125.0,-125.0 0 0,0 3381.0153515581774,5450.0" fill="none" stroke="blue" stroke-width="0.1" />
<path d="M5395.750387643732,5450.0 A-274.9999999999991,-274.9999999999991 0 0,1 5670.750387643731,5725.0" fill="none" stroke="blue" stroke-width="0.1" />
<path d="M5395.750387643732,5600.0 A-124.99999999999909,-124.99999999999909 0 0,1 5520.750387643731,5725.0" fill="none" stroke="blue" stroke-width="0.1" />
<path d="M-4000.0,-1375.0000000000002 A275.0,275.0 0 0,0 -4275.0,-1650.0000000000002" fill="none" stroke="blue" stroke-width="0.1" />
<path d="M-4150.0,-1375.0000000000002 A125.0,125.0 0 0,0 -4275.0,-1500.0000000000002" fill="none" stroke="blue" stroke-width="0.1" />
<path d="M-4989.261150188535,-1500.0000000000002 A275.0,275.0 0 0,1 -5264.261150188535,-1775.0000000000005" fill="none" stroke="blue" stroke-width="0.1" />
<path d="M-4989.261150188535,-1650.0000000000002 A125.0,125.0 0 0,1 -5114.261150188535,-1775.0000000000005" fill="none" stroke="blue" stroke-width="0.1" />
<path d="M-5264.261150188535,-2525.0 A-275.0,-275.0 0 0,1 -4989.261150188535,-2800.0" fill="none" stroke="blue" stroke-width="0.1" />
<path d="M-5114.261150188535,-2525.0 A-125.0,-125.0 0 0,1 -4989.261150188535,-2650.0" fill="none" stroke="blue" stroke-width="0.1" />
<path d="M-4275.0,-2650.0 A-275.0,-275.0 0 0,0 -4000.0,-2925.0000000000005" fill="none" stroke="blue" stroke-width="0.1" />
<path d="M-4275.0,-2800.0 A-125.0,-125.0 0 0,0 -4150.0,-2925.0000000000005" fill="none" stroke="blue" stroke-width="0.1" />
</svg>